<?xml version="1.0" encoding="utf-8"?>
<!-- Generator: Adobe Illustrator 21.1.0, SVG Export Plug-In . SVG Version: 6.00 Build 0)  -->
<svg version="1.1" id="Layer_1" xmlns="http://www.w3.org/2000/svg" xmlns:xlink="http://www.w3.org/1999/xlink" x="0px" y="0px"
	 viewBox="0 0 1920 1920" style="enable-background:new 0 0 1920 1920;" xml:space="preserve">
<style type="text/css">
	.st0{display:none;fill:#231F20;}
	.st1{fill:#FFFFFF;}
</style>
<polygon class="st0" points="411.6,1727.7 411.6,380 599.3,192.3 1508.4,192.3 1508.4,1540 1618,1540 1618,82.6 553,82.6 302,333.7 
	302,1837.4 1320.5,1837.4 1320.5,1727.7 "/>
<path class="st0" d="M1320.7,1727.7h-909V380l187.7-187.7h909V1540l-0.1,0.1c36.6,15.4,73.2,30.7,109.7,46.1V82.6H553l-251,251
	v1503.7h1064.8C1351.4,1800.8,1336,1764.2,1320.7,1727.7L1320.7,1727.7z"/>
<g>
	<path class="st1" d="M1355.1,1799.6l-0.4,0.4H360V325.3L565.3,120H1560v1470.3c29.2,29.2,58.4,58.4,87.5,87.5l32.5-32.5V0H514.7
		L240,274.7V1920h1165.3l34.6-34.6C1411.6,1856.8,1383.4,1828.2,1355.1,1799.6z"/>
	<g>
		<path class="st1" d="M1680,1890.3c0,7.8-2.4,14.6-7.1,20.5s-11.3,8.8-19.7,8.8c-7.3,0-13.5-2.6-18.8-7.9l-328.4-328
			c-26.8,22-56.1,38.9-88.1,50.6c-31.9,11.7-65.3,17.6-100.2,17.6c-27.1,0-53.1-3.5-78.2-10.4c-25.1-7-48.5-16.9-70.3-29.7
			c-21.8-12.8-41.6-28.2-59.6-46.2s-33.4-37.9-46.2-59.6c-12.8-21.8-22.7-45.2-29.7-70.3s-10.5-51.2-10.5-78.2s3.5-53.1,10.4-78.2
			c7-25.1,16.9-48.5,29.7-70.3c12.8-21.8,28.2-41.6,46.2-59.6c18-18,37.9-33.4,59.6-46.2c21.8-12.8,45.2-22.7,70.3-29.7
			c25.1-7,51.2-10.5,78.2-10.5s53.1,3.5,78.2,10.4c25.1,7,48.5,16.9,70.3,29.7c21.8,12.8,41.6,28.2,59.6,46.2s33.4,37.9,46.2,59.6
			c12.8,21.8,22.7,45.2,29.7,70.3c7,25.1,10.4,51.2,10.4,78.2c0,34.9-5.9,68.3-17.6,100.2s-28.6,61.3-50.6,88.1
			c4.2,4.2,12.2,12.1,24.1,23.8c11.9,11.7,26.1,25.7,42.7,41.8s34.7,34,54.4,53.3s39.5,39.1,59.4,59s39.2,39.4,57.9,58.4
			c18.7,19,35.3,36.1,49.8,51.5c14.5,15.3,26.1,28.1,34.7,38.3C1675.6,1881.8,1680,1888.1,1680,1890.3z M1117.7,1598.3
			c33.2,0,64.4-6.4,93.7-19c29.3-12.7,54.8-29.9,76.6-51.7c21.8-21.8,39-47.3,51.7-76.6c12.7-29.3,19-60.5,19-93.7
			s-6.4-64.4-19-93.7c-12.7-29.3-29.9-54.8-51.7-76.6c-21.8-21.8-47.3-39-76.6-51.7c-29.3-12.7-60.5-19-93.7-19s-64.4,6.4-93.7,19
			c-29.3,12.7-54.8,29.9-76.6,51.7s-39,47.3-51.7,76.6c-12.7,29.3-19,60.5-19,93.7s6.4,64.4,19,93.7c12.7,29.3,29.9,54.8,51.7,76.6
			s47.3,39,76.6,51.7C1053.3,1592,1084.5,1598.3,1117.7,1598.3z"/>
	</g>
</g>
</svg>
